<svg xmlns="http://www.w3.org/2000/svg" version="1.1" xmlns:xlink="http://www.w3.org/1999/xlink" xmlns:svgjs="http://svgjs.dev/svgjs" width="1500" height="935" viewBox="0 0 1500 935"><g transform="matrix(1,0,0,1,-0.9090909090909918,0.3785425101214628)"><svg viewBox="0 0 396 247" data-background-color="#143b38" preserveAspectRatio="xMidYMid meet" height="935" width="1500" xmlns="http://www.w3.org/2000/svg" xmlns:xlink="http://www.w3.org/1999/xlink"><g id="tight-bounds" transform="matrix(1,0,0,1,0.2400000000000091,-0.09999999999999432)"><svg viewBox="0 0 395.52 247.2" height="247.2" width="395.52"><g><svg></svg></g><g><svg viewBox="0 0 395.52 247.2" height="247.2" width="395.52"><g transform="matrix(1,0,0,1,75.54432,76.25875604538088)"><svg viewBox="0 0 244.43135999999998 94.68248790923823" height="94.68248790923823" width="244.43135999999998"><g><svg viewBox="0 0 244.43135999999998 94.68248790923823" height="94.68248790923823" width="244.43135999999998"><g><svg viewBox="0 0 244.43135999999998 94.68248790923823" height="94.68248790923823" width="244.43135999999998"><g><svg viewBox="0 0 244.43135999999998 94.68248790923823" height="94.68248790923823" width="244.43135999999998"><g id="textblocktransform"><svg viewBox="0 0 244.43135999999998 94.68248790923823" height="94.68248790923823" width="244.43135999999998" id="textblock"><g><svg viewBox="0 0 244.43135999999998 94.68248790923823" height="94.68248790923823" width="244.43135999999998"><g transform="matrix(1,0,0,1,0,0)"><svg width="244.43135999999998" viewBox="0.5 -34 123.39 47.8" height="94.68248790923823" data-palette-color="#e4cec5"><path d="M25.7 0.55L25.7 0.55Q24.15 0.55 23.08-0.78 22-2.1 21-5.15L21-5.15Q20.5-6.65 20.18-8.08 19.85-9.5 19.7-10.85L19.7-10.85Q19.05-9.85 18.53-9.53 18-9.2 17-9.2L17-9.2Q14.55-9.2 11.8-9.28 9.05-9.35 6.9-9.4L6.9-9.4Q6.8-8.5 6.73-7.58 6.65-6.65 6.65-5.75L6.65-5.75Q6.65-4.95 6.73-4.15 6.8-3.35 6.85-2.6L6.85-2.6Q7-1.2 5.75-0.35 4.5 0.5 2.65 0.5L2.65 0.5Q1.05 0.5 1.05-0.9L1.05-0.9Q1.05-1.75 1.5-3.45L1.5-3.45Q1.75-4.6 1.9-5.43 2.05-6.25 2.05-6.75L2.05-6.75Q2.05-8.15 1.2-8.65L1.2-8.65Q0.5-9.05 0.5-9.7L0.5-9.7Q0.5-10.3 0.78-11.15 1.05-12 1.5-12.73 1.95-13.45 2.35-13.75L2.35-13.75Q2.7-13.95 3.2-14.1 3.7-14.25 4.45-14.3L4.45-14.3Q6.4-19.9 8.83-23.98 11.25-28.05 14-30.28 16.75-32.5 19.6-32.5L19.6-32.5Q21.35-32.5 22.15-31.33 22.95-30.15 22.95-27.4L22.95-27.4 22.95-25.15Q22.95-20.1 23.7-15.85 24.45-11.6 25.55-8.95L25.55-8.95Q26.65-6.15 28.6-4.35L28.6-4.35Q29.2-3.85 29.4-3.48 29.6-3.1 29.6-2.7L29.6-2.7Q29.6-1.95 29.03-1.2 28.45-0.45 27.55 0.05 26.65 0.55 25.7 0.55ZM8.4-14.6L8.4-14.6Q10.85-14.7 12.7-14.78 14.55-14.85 15.8-14.85L15.8-14.85 19.3-14.85Q19.2-16.25 19.13-17.8 19.05-19.35 19.05-21.05L19.05-21.05 19.05-23.95Q19.05-25.4 18.73-25.88 18.4-26.35 17.5-26.35L17.5-26.35Q15.05-26.35 12.6-23.15 10.15-19.95 8.4-14.6ZM32.75 13.8L32.75 13.8Q30.7 13.8 29.22 12.7 27.75 11.6 27.75 9.75L27.75 9.75Q27.75 8.3 28.62 7.28 29.5 6.25 30.8 6.25L30.8 6.25Q31.4 6.25 31.65 6.45 31.9 6.65 32.05 6.9L32.05 6.9Q32.45 7.55 32.97 8.03 33.5 8.5 34.4 8.5L34.4 8.5Q35.6 8.5 36.72 7.65 37.85 6.8 38.8 5.7L38.8 5.7Q39.65 4.75 40.85 2.98 42.05 1.2 43.25-1.05L43.25-1.05Q42.15-0.1 41.2 0.33 40.25 0.75 39.4 0.75L39.4 0.75Q38.35 0.75 37.35-0.03 36.35-0.8 36.1-2.95L36.1-2.95Q35.95-4.6 35.52-6.6 35.1-8.6 34.47-10.48 33.85-12.35 32.95-13.65L32.95-13.65Q32.6-14.25 32.15-14.55 31.7-14.85 30.85-14.95L30.85-14.95Q30.25-15 30.07-15.3 29.9-15.6 29.9-16.25L29.9-16.25Q29.9-18.05 30.9-19.15 31.9-20.25 33.6-20.25L33.6-20.25Q35.65-20.25 36.55-18.68 37.45-17.1 38.1-14.85L38.1-14.85Q38.35-13.95 38.62-12.48 38.9-11 39.12-9.3 39.35-7.6 39.45-6.05L39.45-6.05Q39.5-4.95 40.7-4.95L40.7-4.95Q42.3-4.95 43.75-5.95 45.2-6.95 46.12-8.55 47.05-10.15 47.05-11.9L47.05-11.9Q47.05-12.9 46.8-13.7 46.55-14.5 45.95-15.1L45.95-15.1Q45.45-15.7 45.15-16.07 44.85-16.45 44.85-16.95L44.85-16.95Q44.85-17.8 45.65-18.55 46.45-19.3 47.57-19.8 48.7-20.3 49.55-20.3L49.55-20.3Q51.05-20.3 51.55-18.88 52.05-17.45 51.8-15.75L51.8-15.75Q51.5-13.4 50.6-10.2 49.7-7 48.27-3.5 46.85 0 45.02 3.28 43.2 6.55 41.15 9L41.15 9Q39.4 11.15 37.25 12.48 35.1 13.8 32.75 13.8ZM61.75 0.65L61.75 0.65Q59.25 0.65 57.87-0.8 56.5-2.25 56.5-5L56.5-5Q56.5-6.95 57.05-9L57.05-9Q57.3-9.85 57.45-10.7 57.6-11.55 57.6-12.4L57.6-12.4Q57.6-14.6 56.25-15.25L56.25-15.25Q54.95-15.95 54.95-16.75L54.95-16.75Q54.95-17.55 55.62-18.35 56.3-19.15 57.3-19.68 58.3-20.2 59.3-20.2L59.3-20.2Q62.15-20.2 62.15-15.55L62.15-15.55Q62.15-14.05 61.92-12.78 61.7-11.5 61.4-10.35L61.4-10.35Q61.2-9.55 61.07-8.75 60.95-7.95 60.95-7.35L60.95-7.35Q60.95-4.85 63.4-4.85L63.4-4.85Q65.7-4.85 67.7-7.3 69.7-9.75 71-14.15L71-14.15 70.95-15.1Q70.84-17.6 71.82-18.9 72.8-20.2 74.7-20.2L74.7-20.2Q76.34-20.2 76.34-19.15L76.34-19.15Q76.34-18.8 76.22-18.25 76.09-17.7 75.84-16.95L75.84-16.95Q75.34-15.1 75-13.03 74.65-10.95 74.65-9.2L74.65-9.2Q74.65-7.25 75.25-5.98 75.84-4.7 77.5-4.25L77.5-4.25Q77.95-4.2 78.22-3.98 78.5-3.75 78.5-3.05L78.5-3.05Q78.5-1.85 77.5-0.7 76.5 0.45 74.59 0.45L74.59 0.45Q70.95 0.45 70.95-4.7L70.95-4.7Q70.95-5.6 71.09-7.4L71.09-7.4 71-7.45Q67.84 0.65 61.75 0.65ZM87.94 0.65L87.94 0.65Q86.09 0.65 84.49 0.1 82.89-0.45 81.89-1.45 80.89-2.45 80.89-3.85L80.89-3.85Q80.89-4.6 81.27-5.28 81.64-5.95 82.49-5.95L82.49-5.95Q82.94-5.95 83.44-5.7L83.44-5.7Q84.34-5.2 85.74-4.78 87.14-4.35 88.69-4.35L88.69-4.35Q90.44-4.35 91.79-4.85 93.14-5.35 93.14-6.25L93.14-6.25Q93.14-6.95 92.12-7.25 91.09-7.55 88.69-7.9L88.69-7.9Q87.04-8.2 85.49-8.6 83.94-9 82.94-9.98 81.94-10.95 81.94-12.85L81.94-12.85Q81.94-14.7 82.97-16.43 83.99-18.15 86.04-19.3 88.09-20.45 91.04-20.45L91.04-20.45Q92.59-20.45 94.04-20.1 95.49-19.75 96.44-19.05 97.39-18.35 97.39-17.3L97.39-17.3Q97.39-16.4 96.77-15.65 96.14-14.9 95.32-14.43 94.49-13.95 93.94-13.95L93.94-13.95Q93.54-13.95 92.99-14.5L92.99-14.5Q92.14-15.2 91.12-15.48 90.09-15.75 89.09-15.75L89.09-15.75Q87.59-15.75 86.67-15.3 85.74-14.85 85.74-14.15L85.74-14.15Q85.74-13.5 86.52-13.1 87.29-12.7 88.44-12.53 89.59-12.35 90.64-12.2L90.64-12.2Q93.54-11.8 95.24-10.83 96.94-9.85 96.94-7.4L96.94-7.4Q96.94-5.5 95.87-3.63 94.79-1.75 92.77-0.55 90.74 0.65 87.94 0.65ZM103.29 0.55L103.29 0.55Q102.59 0.55 102.09 0.23 101.59-0.1 101.69-0.65L101.69-0.65Q102.44-4.65 102.97-8.78 103.49-12.9 103.49-17.1L103.49-17.1Q103.49-20.8 103.24-23.8 102.99-26.8 101.64-29.55L101.64-29.55Q101.39-30.1 101.24-30.5 101.09-30.9 101.09-31.25L101.09-31.25Q101.09-32.2 102.22-33.1 103.34-34 104.59-34L104.59-34Q106.34-34 106.99-31.8 107.64-29.6 107.64-25.3L107.64-25.3Q107.64-20.15 107.04-16.32 106.44-12.5 105.99-10.5L105.99-10.5 106.19-10.4Q107.19-13.05 108.62-15.35 110.04-17.65 111.94-19.05 113.84-20.45 116.34-20.45L116.34-20.45Q118.99-20.45 120.37-18.85 121.74-17.25 121.74-14.9L121.74-14.9Q121.74-13.9 121.54-12.98 121.34-12.05 121.09-11.2L121.09-11.2Q120.84-10.4 120.64-9.58 120.44-8.75 120.44-7.9L120.44-7.9Q120.44-6.35 121.19-5.38 121.94-4.4 123.19-4L123.19-4Q123.54-3.9 123.72-3.73 123.89-3.55 123.89-3.1L123.89-3.1Q123.89-2.65 123.59-1.8 123.29-0.95 122.49-0.23 121.69 0.5 120.14 0.5L120.14 0.5Q118.14 0.5 117.04-0.93 115.94-2.35 115.94-4.6L115.94-4.6Q115.94-5.7 116.17-6.85 116.39-8 116.69-9.05L116.69-9.05Q116.94-10.1 117.14-11.03 117.34-11.95 117.34-12.6L117.34-12.6Q117.34-14.9 114.94-14.9L114.94-14.9Q112.94-14.9 111.42-13.48 109.89-12.05 108.82-9.88 107.74-7.7 107.04-5.4L107.04-5.4 107.04-3.7Q107.04-1.85 105.97-0.65 104.89 0.55 103.29 0.55Z" opacity="1" transform="matrix(1,0,0,1,0,0)" fill="#e4cec5" className="wordmark-text-0" data-fill-palette-color="primary" id="text-0"></path></svg></g></svg></g></svg></g></svg></g></svg></g></svg></g></svg></g><g><path d="M0 123.6c0-68.262 55.338-123.6 123.6-123.6 47.092 0 88.032 26.336 108.897 65.083l-4.875 0c-20.464-36.3-59.381-60.813-104.022-60.814-65.905 0-119.331 53.426-119.331 119.331 0 65.905 53.426 119.331 119.331 119.331 44.641 0 83.558-24.513 104.022-60.814l4.875 0c-20.865 38.747-61.806 65.083-108.897 65.083-68.262 0-123.6-55.338-123.6-123.6z" fill="#e4cec5" stroke="transparent" data-fill-palette-color="tertiary"></path></g></svg></g><defs></defs></svg><rect width="395.52" height="247.2" fill="none" stroke="none" visibility="hidden"></rect></g></svg></g></svg>