<?xml version="1.0" encoding="UTF-8"?>
<svg xmlns="http://www.w3.org/2000/svg" xmlns:xlink="http://www.w3.org/1999/xlink" width="1606px" height="1001px" viewBox="0 0 1605 1001" version="1.1">
<defs>
<clipPath id="clip1">
  <path d="M 306.503906 309.046875 L 1296.550781 309.046875 L 1296.550781 692.761719 L 306.503906 692.761719 Z M 306.503906 309.046875 "/>
</clipPath>
<clipPath id="clip2">
  <path d="M 0.519531 0.40625 L 943 0.40625 L 943 1001 L 0.519531 1001 Z M 0.519531 0.40625 "/>
</clipPath>
<clipPath id="clip3">
  <path d="M 0.519531 0.40625 L 966 0.40625 L 966 1001 L 0.519531 1001 Z M 0.519531 0.40625 "/>
</clipPath>
</defs>
<g id="surface1">
<g clip-path="url(#clip1)" clip-rule="nonzero">
<path style=" stroke:none;fill-rule:nonzero;fill:rgb(89.411765%,80.784314%,77.254902%);fill-opacity:1;" d="M 508.726562 586.398438 C 500.433594 586.398438 493.429688 582.839844 487.707031 575.722656 C 481.929688 568.65625 476.367188 556.964844 471.015625 540.640625 C 468.34375 532.613281 466.148438 524.773438 464.4375 517.121094 C 462.671875 509.519531 461.390625 502.109375 460.585938 494.882812 C 457.109375 500.234375 453.980469 503.769531 451.199219 505.480469 C 448.367188 507.246094 444.273438 508.128906 438.925781 508.128906 C 425.820312 508.128906 411.914062 507.914062 397.203125 507.488281 C 382.496094 507.113281 369.390625 506.792969 357.890625 506.523438 C 357.355469 511.339844 356.902344 516.210938 356.527344 521.132812 C 356.101562 526.113281 355.886719 531.007812 355.886719 535.824219 C 355.886719 540.105469 356.101562 544.386719 356.527344 548.667969 C 356.902344 552.949219 357.222656 557.097656 357.492188 561.109375 C 358.292969 568.605469 355.351562 574.625 348.664062 579.171875 C 341.980469 583.722656 333.6875 585.996094 323.792969 585.996094 C 315.234375 585.996094 310.957031 582.25 310.957031 574.757812 C 310.957031 570.210938 312.160156 563.386719 314.566406 554.289062 C 315.90625 548.132812 316.972656 542.835938 317.777344 538.394531 C 318.578125 534.003906 318.980469 530.472656 318.980469 527.796875 C 318.980469 520.304688 316.707031 515.222656 312.160156 512.546875 C 308.417969 510.40625 306.542969 507.59375 306.542969 504.117188 C 306.542969 500.90625 307.292969 497.023438 308.789062 492.476562 C 310.234375 487.925781 312.160156 483.699219 314.566406 479.792969 C 316.972656 475.941406 319.246094 473.210938 321.386719 471.605469 C 323.257812 470.535156 325.53125 469.597656 328.207031 468.796875 C 330.882812 467.992188 334.222656 467.457031 338.234375 467.191406 C 348.664062 437.21875 360.378906 411.320312 373.375 389.484375 C 386.320312 367.703125 400.148438 350.84375 414.855469 338.910156 C 429.566406 327.03125 444.542969 321.089844 459.785156 321.089844 C 469.144531 321.089844 475.964844 324.21875 480.242188 330.480469 C 484.523438 336.796875 486.664062 347.3125 486.664062 362.03125 L 486.664062 380.089844 C 486.664062 407.117188 488.667969 432.003906 492.679688 454.746094 C 496.691406 477.492188 501.636719 495.953125 507.523438 510.136719 C 513.40625 525.121094 521.5625 537.429688 531.992188 547.0625 C 535.203125 549.738281 537.339844 552.066406 538.410156 554.046875 C 539.480469 556.082031 540.015625 558.167969 540.015625 560.308594 C 540.015625 564.324219 538.492188 568.335938 535.441406 572.351562 C 532.339844 576.363281 528.382812 579.707031 523.566406 582.382812 C 518.753906 585.058594 513.808594 586.398438 508.726562 586.398438 Z M 369.925781 464.78125 C 383.03125 464.246094 394.53125 463.765625 404.425781 463.335938 C 414.320312 462.960938 422.613281 462.773438 429.296875 462.773438 L 457.378906 462.773438 C 456.84375 455.28125 456.386719 447.390625 456.015625 439.09375 C 455.585938 430.796875 455.371094 422.101562 455.371094 413.003906 L 455.371094 389.726562 C 455.371094 381.964844 454.515625 376.800781 452.804688 374.230469 C 451.039062 371.714844 447.75 370.457031 442.9375 370.457031 C 429.832031 370.457031 416.726562 379.019531 403.625 396.148438 C 390.519531 413.273438 379.285156 436.148438 369.925781 464.78125 Z M 565.289062 692.761719 C 554.324219 692.761719 544.882812 689.820312 536.964844 683.933594 C 529.105469 678.042969 525.171875 670.152344 525.171875 660.25 C 525.171875 652.492188 527.5 645.882812 532.152344 640.421875 C 536.859375 634.910156 542.691406 632.15625 549.644531 632.15625 C 552.851562 632.15625 555.125 632.691406 556.460938 633.761719 C 557.800781 634.832031 558.871094 636.035156 559.671875 637.371094 C 561.8125 640.851562 564.273438 643.875 567.054688 646.445312 C 569.886719 648.957031 573.710938 650.214844 578.527344 650.214844 C 584.945312 650.214844 591.148438 647.941406 597.140625 643.394531 C 603.183594 638.84375 608.746094 633.625 613.828125 627.738281 C 618.375 622.65625 623.855469 615.378906 630.273438 605.90625 C 636.695312 596.378906 643.113281 585.59375 649.53125 573.554688 C 643.648438 578.636719 638.164062 582.332031 633.082031 584.632812 C 628 586.878906 623.1875 588.003906 618.640625 588.003906 C 613.027344 588.003906 607.542969 585.917969 602.195312 581.742188 C 596.84375 577.621094 593.503906 569.808594 592.164062 558.300781 C 591.363281 549.472656 589.8125 539.703125 587.511719 529 C 585.265625 518.296875 582.457031 507.914062 579.085938 497.855469 C 575.773438 487.847656 571.707031 479.363281 566.894531 472.40625 C 565.019531 469.195312 562.882812 466.789062 560.472656 465.183594 C 558.066406 463.578125 554.589844 462.507812 550.042969 461.972656 C 546.835938 461.703125 544.75 460.769531 543.785156 459.164062 C 542.878906 457.558594 542.421875 455.015625 542.421875 451.535156 C 542.421875 441.902344 545.097656 434.144531 550.445312 428.257812 C 555.792969 422.371094 563.015625 419.425781 572.109375 419.425781 C 583.074219 419.425781 590.960938 423.628906 595.777344 432.03125 C 600.589844 440.484375 604.734375 450.734375 608.210938 462.773438 C 609.546875 467.589844 610.9375 473.933594 612.382812 481.800781 C 613.882812 489.71875 615.21875 498.230469 616.394531 507.328125 C 617.625 516.425781 618.507812 525.121094 619.042969 533.417969 C 619.308594 539.304688 622.652344 542.246094 629.070312 542.246094 C 637.628906 542.246094 645.785156 539.570312 653.542969 534.21875 C 661.296875 528.867188 667.636719 521.910156 672.554688 513.347656 C 677.53125 504.785156 680.019531 495.820312 680.019531 486.457031 C 680.019531 481.105469 679.347656 476.289062 678.011719 472.007812 C 676.675781 467.726562 674.402344 463.980469 671.191406 460.769531 C 668.519531 457.558594 666.378906 454.960938 664.773438 452.980469 C 663.167969 450.949219 662.367188 448.59375 662.367188 445.917969 C 662.367188 441.367188 664.507812 437.085938 668.785156 433.074219 C 673.066406 429.058594 678.199219 425.714844 684.191406 423.039062 C 690.234375 420.363281 695.527344 419.023438 700.074219 419.023438 C 708.097656 419.023438 713.449219 422.824219 716.121094 430.425781 C 718.796875 438.078125 719.464844 446.453125 718.128906 455.550781 C 716.523438 468.125 713.3125 482.976562 708.5 500.101562 C 703.6875 517.226562 697.453125 535.15625 689.804688 553.886719 C 682.210938 572.617188 673.519531 590.757812 663.730469 608.3125 C 653.996094 625.8125 643.648438 641.117188 632.683594 654.230469 C 623.320312 665.734375 612.890625 675.046875 601.390625 682.164062 C 589.890625 689.230469 577.859375 692.761719 565.289062 692.761719 Z M 797.957031 587.199219 C 784.585938 587.199219 774.207031 583.320312 766.828125 575.5625 C 759.5 567.800781 755.835938 556.5625 755.835938 541.84375 C 755.835938 531.410156 757.308594 520.707031 760.25 509.734375 C 761.585938 505.1875 762.65625 500.636719 763.457031 496.089844 C 764.261719 491.539062 764.660156 486.992188 764.660156 482.441406 C 764.660156 470.667969 761.050781 463.042969 753.832031 459.5625 C 746.875 455.816406 743.398438 451.804688 743.398438 447.523438 C 743.398438 443.242188 745.191406 438.960938 748.777344 434.679688 C 752.414062 430.398438 756.90625 426.839844 762.253906 424.003906 C 767.601562 421.21875 772.953125 419.828125 778.300781 419.828125 C 793.542969 419.828125 801.167969 432.269531 801.167969 457.15625 C 801.167969 465.183594 800.550781 472.59375 799.320312 479.390625 C 798.144531 486.242188 796.753906 492.742188 795.148438 498.898438 C 794.078125 503.179688 793.195312 507.460938 792.5 511.742188 C 791.859375 516.023438 791.539062 519.769531 791.539062 522.980469 C 791.539062 536.359375 798.089844 543.050781 811.195312 543.050781 C 823.496094 543.050781 834.996094 536.492188 845.695312 523.382812 C 856.390625 510.269531 865.21875 491.941406 872.171875 468.394531 L 871.769531 460.769531 C 871.179688 447.390625 873.507812 437.21875 878.75 430.261719 C 883.992188 423.304688 891.691406 419.828125 901.855469 419.828125 C 910.628906 419.828125 915.011719 422.636719 915.011719 428.257812 C 915.011719 430.128906 914.691406 432.539062 914.050781 435.480469 C 913.355469 438.425781 912.339844 441.902344 911.003906 445.917969 C 908.328125 455.816406 906.082031 466.308594 904.261719 477.382812 C 902.390625 488.515625 901.453125 498.765625 901.453125 508.128906 C 901.453125 518.566406 903.058594 527.183594 906.269531 533.976562 C 909.425781 540.828125 915.441406 545.457031 924.320312 547.867188 C 926.726562 548.132812 928.652344 548.855469 930.097656 550.035156 C 931.59375 551.265625 932.34375 553.753906 932.34375 557.5 C 932.34375 563.921875 929.667969 570.210938 924.320312 576.363281 C 918.972656 582.519531 911.1875 585.59375 900.972656 585.59375 C 881.503906 585.59375 871.769531 571.816406 871.769531 544.253906 C 871.769531 539.4375 872.144531 532.210938 872.890625 522.578125 L 872.171875 522.179688 C 855.269531 565.527344 830.53125 587.199219 797.957031 587.199219 Z M 1008.082031 587.199219 C 998.1875 587.199219 988.960938 585.730469 980.402344 582.785156 C 971.84375 579.84375 964.890625 575.695312 959.542969 570.34375 C 954.191406 564.992188 951.519531 558.570312 951.519531 551.078125 C 951.519531 547.0625 952.535156 543.238281 954.566406 539.597656 C 956.546875 536.011719 959.808594 534.21875 964.355469 534.21875 C 966.761719 534.21875 969.304688 534.886719 971.976562 536.226562 C 976.792969 538.902344 982.941406 541.363281 990.429688 543.613281 C 997.917969 545.914062 1005.808594 547.0625 1014.097656 547.0625 C 1023.457031 547.0625 1031.75 545.726562 1038.96875 543.050781 C 1046.191406 540.375 1049.800781 536.628906 1049.800781 531.8125 C 1049.800781 528.066406 1047.074219 525.390625 1041.617188 523.785156 C 1036.109375 522.179688 1026.933594 520.4375 1014.097656 518.566406 C 1005.273438 516.960938 996.714844 515.085938 988.425781 512.945312 C 980.132812 510.804688 973.3125 507.113281 967.964844 501.867188 C 962.617188 496.675781 959.941406 488.996094 959.941406 478.828125 C 959.941406 468.929688 962.695312 459.351562 968.207031 450.089844 C 973.660156 440.886719 981.871094 433.207031 992.835938 427.050781 C 1003.800781 420.898438 1017.175781 417.820312 1032.953125 417.820312 C 1041.242188 417.820312 1049.265625 418.757812 1057.023438 420.628906 C 1064.777344 422.503906 1071.195312 425.3125 1076.277344 429.058594 C 1081.359375 432.804688 1083.898438 437.488281 1083.898438 443.109375 C 1083.898438 447.925781 1082.242188 452.339844 1078.925781 456.351562 C 1075.554688 460.367188 1071.675781 463.632812 1067.292969 466.144531 C 1062.851562 468.714844 1059.160156 470 1056.21875 470 C 1054.078125 470 1051.539062 468.527344 1048.597656 465.585938 C 1044.050781 461.839844 1039.050781 459.214844 1033.59375 457.71875 C 1028.085938 456.273438 1022.65625 455.550781 1017.308594 455.550781 C 1009.285156 455.550781 1002.8125 456.753906 997.890625 459.164062 C 992.917969 461.570312 990.429688 464.648438 990.429688 468.394531 C 990.429688 471.871094 992.515625 474.683594 996.6875 476.824219 C 1000.808594 478.964844 1005.941406 480.488281 1012.09375 481.398438 C 1018.242188 482.363281 1024.128906 483.246094 1029.742188 484.046875 C 1045.253906 486.1875 1057.554688 489.855469 1066.648438 495.046875 C 1075.742188 500.289062 1080.289062 509.46875 1080.289062 522.578125 C 1080.289062 532.746094 1077.425781 542.835938 1071.703125 552.84375 C 1065.925781 562.902344 1057.636719 571.144531 1046.832031 577.566406 C 1035.972656 583.988281 1023.058594 587.199219 1008.082031 587.199219 Z M 1131.234375 586.398438 C 1127.492188 586.398438 1124.28125 585.542969 1121.605469 583.828125 C 1118.933594 582.0625 1117.863281 579.707031 1118.398438 576.765625 C 1122.410156 555.359375 1125.832031 533.605469 1128.667969 511.5 C 1131.449219 489.453125 1132.839844 467.191406 1132.839844 444.714844 C 1132.839844 424.910156 1132.171875 406.984375 1130.832031 390.929688 C 1129.496094 374.875 1125.21875 359.488281 1117.996094 344.769531 C 1116.660156 341.828125 1115.589844 339.285156 1114.789062 337.144531 C 1113.984375 335.003906 1113.585938 332.996094 1113.585938 331.125 C 1113.585938 326.039062 1116.605469 321.089844 1122.648438 316.273438 C 1128.640625 311.457031 1134.980469 309.046875 1141.664062 309.046875 C 1151.023438 309.046875 1157.445312 314.933594 1160.921875 326.710938 C 1164.398438 338.484375 1166.136719 355.875 1166.136719 378.886719 C 1166.136719 406.449219 1164.53125 430.476562 1161.320312 450.972656 C 1158.113281 471.417969 1155.304688 486.992188 1152.898438 497.695312 L 1154.5 498.496094 C 1159.851562 484.316406 1166.347656 471.070312 1173.996094 458.761719 C 1181.59375 446.453125 1190.472656 436.550781 1200.632812 429.058594 C 1210.796875 421.566406 1222.5625 417.820312 1235.9375 417.820312 C 1250.109375 417.820312 1260.886719 422.101562 1268.269531 430.664062 C 1275.597656 439.226562 1279.261719 449.796875 1279.261719 462.375 C 1279.261719 467.726562 1278.726562 472.863281 1277.65625 477.785156 C 1276.585938 482.761719 1275.382812 487.527344 1274.046875 492.074219 C 1272.707031 496.355469 1271.503906 500.691406 1270.433594 505.078125 C 1269.367188 509.519531 1268.832031 514.015625 1268.832031 518.566406 C 1268.832031 526.859375 1270.835938 533.605469 1274.847656 538.796875 C 1278.859375 544.039062 1284.207031 547.730469 1290.894531 549.871094 C 1292.765625 550.40625 1294.183594 551.128906 1295.144531 552.039062 C 1296.054688 553.003906 1296.511719 554.6875 1296.511719 557.097656 C 1296.511719 559.503906 1295.707031 562.984375 1294.101562 567.535156 C 1292.5 572.082031 1289.558594 576.285156 1285.277344 580.136719 C 1281 584.042969 1274.714844 585.996094 1266.421875 585.996094 C 1255.726562 585.996094 1247.4375 582.171875 1241.550781 574.515625 C 1235.667969 566.917969 1232.726562 557.097656 1232.726562 545.054688 C 1232.726562 539.167969 1233.34375 533.148438 1234.570312 526.996094 C 1235.75 520.839844 1237.140625 514.953125 1238.742188 509.335938 C 1240.082031 503.714844 1241.285156 498.417969 1242.355469 493.441406 C 1243.425781 488.515625 1243.960938 484.316406 1243.960938 480.835938 C 1243.960938 468.527344 1237.539062 462.375 1224.703125 462.375 C 1214.007812 462.375 1204.59375 466.171875 1196.460938 473.773438 C 1188.277344 481.425781 1181.324219 491.058594 1175.601562 502.671875 C 1169.824219 514.339844 1165.066406 526.324219 1161.320312 538.632812 L 1161.320312 552.28125 C 1161.320312 562.183594 1158.460938 570.34375 1152.738281 576.765625 C 1146.960938 583.1875 1139.792969 586.398438 1131.234375 586.398438 Z M 1131.234375 586.398438 "/>
</g>
<g clip-path="url(#clip2)" clip-rule="nonzero">
<path style=" stroke:none;fill-rule:nonzero;fill:rgb(89.411765%,80.784314%,77.254902%);fill-opacity:1;" d="M 0.519531 500.90625 C 0.519531 224.265625 224.660156 0 501.148438 0 C 691.890625 0 857.714844 106.730469 942.226562 263.757812 L 922.480469 263.757812 C 839.59375 116.648438 681.964844 17.304688 501.148438 17.300781 C 234.207031 17.300781 17.808594 233.816406 17.808594 500.90625 C 17.808594 767.992188 234.207031 984.511719 501.148438 984.511719 C 681.964844 984.511719 839.59375 885.167969 922.480469 738.054688 L 942.226562 738.054688 C 857.714844 895.082031 691.886719 1001.808594 501.148438 1001.808594 C 224.660156 1001.808594 0.519531 777.546875 0.519531 500.90625 Z M 0.519531 500.90625 "/>
</g>
<g clip-path="url(#clip3)" clip-rule="nonzero">
<path style="fill:none;stroke-width:1;stroke-linecap:butt;stroke-linejoin:miter;stroke:rgb(100%,100%,100%);stroke-opacity:1;stroke-miterlimit:4;" d="M 0.0000798192 123.600244 C 0.0000798192 55.338271 55.337912 -0.000000000000007082 123.5998 -0.000000000000007082 C 170.691929 -0.000000000000007082 211.632088 26.33609 232.497093 65.083097 L 227.622002 65.083097 C 207.158191 28.783381 168.241363 4.269988 123.5998 4.269024 C 57.69493 4.269024 4.268557 57.694957 4.268557 123.600244 C 4.268557 189.504566 57.69493 242.931463 123.5998 242.931463 C 168.241363 242.931463 207.158191 218.41807 227.622002 182.11739 L 232.497093 182.11739 C 211.632088 220.864397 170.690964 247.199523 123.5998 247.199523 C 55.337912 247.199523 0.0000798192 191.862216 0.0000798192 123.600244 Z M 0.0000798192 123.600244 " transform="matrix(4.050405,0,0,4.052632,0.519208,0.000000000000028699)"/>
</g>
</g>
</svg>
